<svg id="Layer_1" data-name="Layer 1" xmlns="http://www.w3.org/2000/svg" width="304.34" height="284.23" viewBox="0 0 304.34 284.23">
  <path d="M291.61,124.33c-4.57-.26-9.12-1.1-13.69-1.36-4.32-.24-8.66,0-13-.08a5.14,5.14,0,0,0-4.41,1.81c-1.31,1.56-2.89,1.75-4.87,1.43-4.1-.65-8.25-1-12.38-1.48-2.76-.34-5.52-.77-8.28-1.15a37.62,37.62,0,0,0-4.47-.55c-4.56-.08-9.13,0-13.7,0a6.48,6.48,0,0,1-3-.38c-3.16-1.8-6.57-1.22-9.92-1.38a15.11,15.11,0,0,1-3.1-.77,25,25,0,0,0-3.45-.9c-1.43-.16-2.9,0-4.35-.06-3.75-.23-7.71,1-11.14-1.63-.29-.21-.87,0-1.28-.11-1.75-.49-3.48-1.05-5.23-1.57a13.14,13.14,0,0,0-3.67-1c-4.66.06-9.32.43-14,.5-2,0-4.09-.47-6.14-.53-3.27-.09-6.55-.13-9.82,0-5.32.2-10.64.65-16,.78a7.12,7.12,0,0,1-4-1.26,7.53,7.53,0,0,0-7.47-.52,15.23,15.23,0,0,1-6.37,1.71c-5.62-.14-11,.2-16.06,3A13.38,13.38,0,0,1,85.32,120a23,23,0,0,0-13.39,3.7c-3.2,2-6.55,3.58-10.36,3.56-4,0-6.49,1.83-8.16,5.25a1.64,1.64,0,0,1-1.21.84c-2.8-.15-5.58-.52-8.38-.59a18.82,18.82,0,0,0-4.31.65c-2,.43-3.95,1-5.94,1.42-1.53.33-3.42.07-4.55.9-3.71,2.73-7.86,3-12.15,3-.17-2.29-1.51-3.56-3.53-3a24.16,24.16,0,0,0-4.19,2c-2.09,1-4.1,2.37-6.31,2.94A9.15,9.15,0,0,0-.3,142V284.23H304.64V126.49C300.07,127.2,296.06,124.57,291.61,124.33Z"/>
</svg>
