<svg id="Layer_1" data-name="Layer 1" xmlns="http://www.w3.org/2000/svg" width="2337" height="2179" viewBox="0 0 2337 2179">
  <g id="T2r6GU">
    <path d="M2337,815.41V2179H0V817c4.58.95,9.22,1.65,13.71,2.92,3.51,1,6.82,3.39,9.94-.77.41-.55,2-.22,3-.36,4-.56,8.63,2.36,11.8-2.39.18-.27,1.46.07,2.16.31,5.57,1.94,11,3.71,16.9.65,2.75-1.43,4.79,2.12,8.25,1.86,5.83-.43,11.84,1.63,18.1,2.69.52-.75,1.46-2.14,2.46-3.6,6.69,6.71,10.31,7.71,18,5.29.6-.2,1.77-.27,1.93,0,2.87,5.26,6.38,3,10.41,1.46,6.61-2.48,13.41-5.6,20.6-4.49a12.39,12.39,0,0,0,10.35-2.92c5.91-4.64,12.52-4.86,19.35-3,1.19.33,2.4,2,2.81,3.22.22.68-1.26,1.91-2.22,3.23,5,.58,5.42-3.81,6.4-4.9l8.22-1.36c5.83,2.51,10.79,5.58,16.14,6.64,3.8.75,7.51,1,10.7,3.35,2.41,1.72,4.18.92,6.86-.12,5-1.94,10.81-3.81,15.84-3,4.09.68,10,.52,11.6,4.9,8.53.41,16.16.95,23.8,1,2.55,0,5.13,2.18,7.85-.59,4-4.06,9.22-2.91,12.56.2,4.41,4.11,9.6,2.65,14.35,3.9,1.19.32,3.12-1.59,4.08-1.14,9.92,4.6,20.81,6.27,30.77,11.23,7.82,3.9,17.53,7.29,25.72-.61,3.25,1,6.14,2.39,9.14,2.69,12.56,1.24,25.15,2.11,37.72,3.23A17,17,0,0,1,415,848c7.88,3.83,15.8,7.05,24.87,4.81,1.42-.36,3.53-.5,4.48.28,3.67,3,7.69,2,11.52,1.28,4.5-.8,8.81-4.26,13.48-.38.32.27,1.61-.15,2.07-.62,1.69-1.77,3-.21,4.65.07,5.65,1,10.07,5.74,16.43,4.77,3.1-.48,6.42.48,9.64.87,4.42.55,9.72,3,13.06,1.39,8-3.86,15.38-3.13,23.27-1a22.67,22.67,0,0,0,6.79.51c7.23-.36,14.38-3.45,21.76-.09,1.37.62,3.73-1.2,5.69-1.57,3.19-.6,7.34-2.38,9.44-1.06,3.93,2.48,7.63,2.32,11.8,2.65,6.29.51,12.48,2.28,18.65,3.5.84-1.11,1.32-2.43,2.08-2.62,8.46-2.12,16.31-6.83,25.69-5.15,4.21.75,8.74-.52,13.07-.18,6.18.49,12.29,2.09,18.46,2.33a94,94,0,0,0,17.23-1.25c2.71-.39,4.65-2.82,8.16-.46,1.64,1.1,5.75-1.89,8.84-2.38a6.88,6.88,0,0,1,4.8,1.72c2.84,2.43,5.53,2.1,8.45.46,7.67-4.29,15.52-4,23.51-1a5.05,5.05,0,0,0,3.16.3c10.36-3.69,20.86-5.45,31.65-2.17,2.76.84,5.06.72,7.07-1.3,5.36-5.37,9.37-6.84,16.16-5.72,2.62.43,4.5-.23,6.87-2,3.15-2.31,7.8-4.8,11.17-4.12,6,1.22,11.71.86,17.51.33,7.54-.69,15-1.18,22.48.6,2.94.69,6.07.62,9.12.91,6.53,2.39,12.11,9.63,20.63,3,4.06,3.09,8.85,4.94,12.93,1.74,5.3-4.17,11-2.22,16.47-2.4,8.92-.29,17.92,1.33,26.83.88,8.14-.41,16.22-2.6,23.66,2.6.18.13.5.08.75.12,10.85,1.53,22,.08,32.69,3.34,2.64.81,5.5.87,8.16,1.6a9.12,9.12,0,0,0,7-.7c3-1.45,5.22-4.88,9.66-3.07,2.94,1.2,6.51.85,9.8,1.22a12.72,12.72,0,0,0,2.94.42c5.23-.65,10.5-1.17,15.66-2.23,4.92-1,9.49-1.21,14.36.7,2.34.92,5.47-.11,8.23-.36a54.72,54.72,0,0,1,8.3.6,7.59,7.59,0,0,0,2.28.23c10.09-.42,20.18-.88,29.43-1.29l5.08-6.43,10.22,6.06c6-5,11.73-3.07,16.87.61,2.21-1.59,4.1-4,6.25-4.29a105,105,0,0,1,17.29-.37c6.64.34,13.31,2.07,19.87,1.64a9.29,9.29,0,0,1,8.65,3.72c2.8-.56,4.22-5.42,7.23-1.24a2.11,2.11,0,0,0,2-.13c2.33-2.73,7.17-1.66,8.63-5.85.27-.77,2-1.23,3.18-1.45,2.38-.46,4.81-.67,7.27-1,.14.65.37,1.68.75,3.4l3.39-4c4.5,2.91,8.53,2.28,11.89-1.59,1.45-1.68,2.8-3.75,4.68-4.71,4.21-2.15,8.71-3.7,14.17-5.94,3.65.87,3.59.79,8-2.5a68.17,68.17,0,0,1,7.92-5.23c5.32-3,10.92-3.6,17.12-4a121.45,121.45,0,0,1,17.39.25c.45,0,.93-.37,1.76-.73l3.63-12.36c10,7.09,16.18,2.19,21.71-5.38,2,1.92,3.59,3.57,5.35,5,1.36,1.08,2.93,2.54,4.47,2.63,6.52.39,12.15,2.48,16.85,7.07a4,4,0,0,0,2.61,1c9-.07,17.09,2.56,25,6.82,3.64,2,8.6,3.89,12.21,3,6.38-1.66,9.68.29,11.53,5.25,3.48-.66,6.52-2.08,9.21-1.58,6.59,1.24,13,3.33,19.5,5.16a7.94,7.94,0,0,1,3.18,1.62c5.61,5.21,9,5.91,15.15,2.06a9.77,9.77,0,0,1,9.45-1.05c1.9.73,4,1.69,5.89,1.49s3.41-1.77,5.62-3c2.81,2.25,6.75,2.7,11,.36,1.29-.71,3.52-1.77,4.18-1.24,4.21,3.36,9.39,1.5,13.75,3,5.88,2,10.71,1.25,16.31-1.36,7-3.24,14.73-1.59,22,.12,3.78.88,6.63,2.52,10.27-1.08,2.34-2.3,5.73-4.58,10.33-2.77,3.81,1.51,8.31,1.58,12.52,1.71,7.93.25,16-2.56,23.74,1.46a3.77,3.77,0,0,0,3-.19c4.85-2.52,10.23-1.82,14.92-.9,5.54,1.09,11.28,1.9,16.8,3.12,7.14,1.59,15.14,2.12,22.77,0a111.73,111.73,0,0,1,18.38-3.28c7.15-.75,15.68,2.5,21.12-5.23A33.3,33.3,0,0,0,1732,831.6c4.89-.35,10-1.12,15.09-1.37,4.29-.22,8.6,0,12.9.06,3.8,0,7.61-.12,11.42,0,5.38.16,11,1.64,16.07.5,6.91-1.57,13.64-1,20.48-1.39a113.74,113.74,0,0,1,25.3,1.2c7.76,1.3,16.83,2,24.87-2,1.44-.73,3.51-.32,5.28-.29,4.59.09,9.17.44,13.75.36,9.47-.18,18.94-.87,28.4-.75,4.77.06,9.68,2.69,13.33-2.91.56-.86,3.4-.33,5.18-.3,9.41.21,18.81.51,28.21.64a45.68,45.68,0,0,0,6.1-.79,11.42,11.42,0,0,1,3.62-.2A80.21,80.21,0,0,0,1989,825.4c1.93-.25,4.79-.88,5.75.11,3.82,3.94,8,2.4,12.1,1.5a37.57,37.57,0,0,1,15,0c5.4.95,11.48,2.89,16.37-2.5,1.07-1.17,3.75-1.14,5.7-1.2,5.16-.15,10.41.56,15.46-.19,6-.89,11.8-.42,17.06,2,6.44,3,12.13,2.55,18.05-.93,1.36-.8,3.76-1.55,4.8-.91,5,3.08,7.59.29,9.38-3,3.47-.33,6.26-1,9-.76,6.11.53,12.89-3.72,18.32,2.48a3.82,3.82,0,0,0,3.58.69c3.17-1.86,6,.21,9,.23a31.47,31.47,0,0,0,9-1.06c5-1.46,9.93-2.05,15.05-.67a22,22,0,0,0,6.82,1.07c4.51-.27,10.65.58,13.14-2,4.53-4.63,8.16-3.26,12.88-1.93,5.62,1.59,11.31,3,17.35,2.11,4.07-.62,8.4-1.42,12.31-.64a31.35,31.35,0,0,0,19.32-1.95c2.13-.93,5.1-1.74,7-1,6.09,2.45,11,.35,14.76-2.35,3.07,1.24,5.23,2.72,7.48,2.87,3.86.25,8.62,1,11.45-.91,3.29-2.15,6-1.79,9.22-1.7C2315.2,815.09,2326.1,815.22,2337,815.41Z"/>
  </g>
</svg>
