<?xml version="1.0" encoding="UTF-8"?>
<svg width="2338px" height="1420px" viewBox="0 0 2338 1420" version="1.1" xmlns="http://www.w3.org/2000/svg" xmlns:xlink="http://www.w3.org/1999/xlink">
    <!-- Generator: Sketch 61.2 (89653) - https://sketch.com -->
    <title>Artboard 4 copy 2</title>
    <desc>Created with Sketch.</desc>
    <g id="Page-1" stroke="none" stroke-width="1" fill="none" fill-rule="evenodd">
        <g id="Artboard-4-copy-2" transform="translate(1169.000000, 710.000000) rotate(-180.000000) translate(-1169.000000, -710.000000) translate(0.000000, 0.000000)" fill-rule="nonzero">
            <path d="M1697.71,125 C1697.96,125.62 1698.29,126.79 1698.45,126.77 C1700.37,126.49 1702.25,126.04 1705.45,125.37 L1700.51,133.11 L1714.1,127.87 L1723.6,131.57 C1725.35,132.25 1727.95,131.57 1728.28,134.51 L1730.56,131.98 C1732.49,133.45 1734.56,135.23 1737.92,133.25 C1739.92,132.08 1742.11,137.35 1745.82,134.2 C1747.89,132.44 1751.6,132.6 1754.92,131.82 C1758.59,138.71 1765.38,139.92 1772.21,140.82 C1776.28,141.34 1780.41,141.37 1786.13,141.71 C1789.61,144.53 1794.3,148.09 1801.9,147.77 C1807.28,147.54 1812.4,147.71 1817.44,145.64 C1818.30655,145.226546 1819.29181,145.134399 1820.22,145.38 C1827.13,148.23 1833.62,147.74 1840.62,144.86 C1843.62,143.63 1847.96,145.61 1851.62,146.4 C1853.62,146.82 1855.44,147.82 1858.2,148.9 C1860.78,145.64 1863.40333,142.326667 1866.07,138.96 L1874.76,138.96 C1869.01,131.26 1871.65,123.96 1874.08,116.76 C1874.3652,115.871575 1874.87095,115.069942 1875.55,114.43 C1879.55,111 1883.05,107.43 1882.35,101.43 C1882.29,100.88 1883.86,100.28 1884.2,99.5 C1885.2,97.26 1887.29,93.56 1886.55,92.83 C1882.11,88.38 1886.48,84.83 1886.55,80.83 C1894.32,82.47 1892.43,81.63 1895.69,74.28 C1899.14,66.5 1895.6,59.46 1897.32,52.34 C1897.56,51.34 1898.88,50.63 1900.44,49.03 C1901.55,54.41 1902.44,58.6 1903.27,62.78 C1909.64,62.21 1909.64,62.21 1906.92,48.14 C1911.11,49.57 1912.84,53.05 1912.61,59.59 L1924.35,58.32 L1924.35,66.23 C1928.05,64.78 1931.35,63.11 1933.74,67.9 C1934.35,69.1 1937.29,69.84 1939.02,69.64 C1944.92,68.97 1952.79,69.64 1957.94,71.48 C1959.41659,71.9421814 1960.96635,72.1253039 1962.51,72.02 C1967.34,71.87 1971.92,72.23 1975.98,75.46 C1976.67,76 1978.88,74.63 1980.98,73.96 C1981.36,74.53 1982.24,75.86 1983.37,77.59 C1985.20095,77.327193 1987.05439,77.2568093 1988.9,77.38 C1991.75,77.83 1994.45,77.17 1997.26,80.1 C2000.07,83.03 2005.51,83.49 2010.26,82.67 C2014.04,82.02 2017.85,81.45 2021.66,80.95 C2025.47,80.45 2029.27,80.6 2031.88,84.31 C2032.56,85.31 2033.66,86.42 2034.7,86.57 C2039.7,87.31 2044.89,86.83 2049.57,89.57 C2050.5,90.11 2052.44,88.92 2053.92,88.57 C2058.09,87.57 2062.23,85.7 2066.51,88.44 C2067.13,88.84 2068.32,88.31 2069.25,88.27 C2074.21,88.0633333 2079.17333,87.8666667 2084.14,87.68 C2087.68,87.55 2091.39,83.68 2094.73,88.14 C2096.73,85.14 2099.61,86.66 2102.24,86.27 C2105.12,85.84 2106.81,85.12 2108.24,88.37 C2109.13797,89.8377618 2110.66086,90.8112272 2112.37,91.01 C2116.93736,91.2773371 2121.43014,92.2907441 2125.67,94.01 C2127.36,94.64 2129.62,93.51 2131.6,93.62 C2135.6,93.85 2139.69,94.25 2143.7,94.8 C2151.24,95.8 2158.47,94.1 2165.7,92.44 L2169.96,97.84 L2177.19,94.12 C2180.93,96.9 2184.19,100.74 2190.19,97.29 C2192.13,96.17 2196.71,97.29 2198.6,98.94 C2202.06,102.07 2204.25,100.94 2206.86,98.04 C2209.73,103.13 2213.79,104.7 2219.17,104.04 C2222.93,103.6 2226.84,104.36 2230.58,103.84 C2233.32829,103.471012 2235.92983,102.380712 2238.12,100.68 C2241.95,97.49 2243.72,95.78 2245.91,95.37 L2248.4,102.37 L2256.4,99.89 C2258.12,101.47 2260,103.33 2262.04,105.01 C2262.96,105.76 2264.38,106.84 2265.23,106.6 C2271.07,104.93 2275.8,108.6 2281.23,109.38 C2280.85,110.77 2280.52,111.93 2279.87,114.29 L2285.01,110.23 L2284.06,115.67 C2285.89,117.22 2287.59,118.82 2289.46,120.18 C2290.15,120.68 2291.89,121.06 2292.07,120.78 C2294.41,117.23 2297.51,120.39 2298.46,121.15 C2302.31,124.24 2306.93,122.8 2311.03,124.15 C2315.13,125.5 2320.1,124.57 2324.56,125.33 C2326.83,125.72 2329.88,127.15 2330.75,128.98 C2332.63,132.89 2334.75,130.98 2337.06,130.26 L2337.06,1419.13 L0,1419.13 L0,0.43 L9.33,0.43 C15.24,9.11 24.69,10.86 33.21,13.96 C41.73,17.06 50.52,18.22 59.68,14.61 C60.88,19.01 63.92,19.84 67.62,20.87 C75.84,23.16 83.93,25.87 92.35,27.48 C93.83,27.75 95.35,28.05 96.8,28.27 C98.07,28.46 100.02,28.06 100.53,28.75 C104.99,34.75 112.59,33.49 118.29,36.56 C122,38.56 125.68,40.09 130.47,39.37 C133.28,38.94 137.47,41.26 139.54,43.66 C143.8,48.66 148.84,50.51 155.23,50.87 L151.58,52 C152.84,53.14 153.71,54.62 154.76,54.76 C160.19,55.47 164.76,60.17 170.76,58.16 C171.264573,58.0553275 171.787817,58.21343 172.15,58.58 C174.84,63.3 179.68,61.97 183.77,62.99 C187.86,64.01 191.82,65.99 195.89,67.36 C197.57006,67.8609373 199.300766,68.1728668 201.05,68.29 C207.96,69.01 215.05,68.85 221.72,70.59 C226.26,71.78 231.39,72.3 235.34,75.86 C236.72,77.1 239.88,77.92 241.34,77.19 C246.01,74.93 249.34,77.72 252.7,79.58 C259.9,83.58 267.05,86.79 275.58,87.18 C279.27,87.35 283.51,89.83 286.28,92.52 C292.11,98.17 298.99,98.34 306.15,98.02 C311.51,97.78 316.62,97.81 319.05,103.49 C329.05,101.82 329.05,101.82 340.27,107.68 L348.27,104.68 C347.96,106.84 347.78,108.13 347.48,110.22 C353.4,111.77 359.43,113.49 365.53,114.91 C375.19,117.15 385.53,118.78 393.27,124.75 C400.19,130.12 406.96,131.75 415.01,131.66 C416.94,131.66 418.94,132.66 420.82,133.39 C428.64,136.49 436.54,138.88 445.14,137.87 C446.45,137.71 448.91,138.45 449.14,139.23 C450.29,143.62 453.85,142.92 456.62,142.76 C463.004961,142.462098 469.371953,143.649919 475.22,146.23 C476.84,146.9 478.83,147.76 480.37,147.38 C490.1,144.94 498.74,149.28 507.75,151.38 C517.11,153.56 525.87,157.51 535.01,160.38 C535.953196,160.793021 537.000905,160.904777 538.01,160.7 C540.877938,159.541188 544.098761,159.628139 546.9,160.94 C547.623329,161.24822 548.434626,161.280245 549.18,161.03 C555.96,158.21 563.03,161.1 569.97,159.87 C570.68,161.11 571.41,162.39 572.17,163.69 C576.17,160.95 577.12,160.48 577.86,160.84 L589.6,152.34 L590.65,153.34 L584.23,160.16 C586.85,161.39 589.45,163.16 592.29,163.79 C594.91,164.41 598.54,164.92 600.41,163.6 C603.89,161.16 607.62,161.42 611.24,160.45 C615.02,159.45 618.37,156.87 622.13,155.73 C625.61,154.67 629.35,152.73 633.05,155.34 C634.26,156.21 636.19,157.13 636.34,158.23 C637,163.23 639.19,162.45 643.22,161.64 C651.46,159.99 659.49,155.96 668.34,158.15 C669.06,158.33 670.14,156.9 671.1,156.3 C671.865938,155.829956 672.664662,155.415555 673.49,155.06 C676,159.3 679.68,155.3 682.59,156.39 C683.81,156.84 685.12,157.03 686.35,157.39 C688.425386,157.925586 690.437002,158.683295 692.35,159.65 C693.75,160.48 694.44,162.65 695.86,163.24 C699.51,164.76 703.27,165.51 707.38,164.14 C710.29,163.14 713.55,163.29 717.02,162.88 C717.93,165.23 718.79,167.46 719.86,170.21 C721.550285,169.714367 723.26612,169.310445 725,169 C726.77,168.77 729.31,168.09 730.25,169 C735.17,173.56 741.63,171.49 747.25,173.17 C753.09,174.92 759.91,174.44 766.1,173.54 C768.896714,173.145993 771.737931,173.193234 774.52,173.68 C778.84,174.33 783.16,176.11 787.8,173.5 C789.9,172.31 793.32,172.93 796,173.44 C799.86,174.17 803.41,175.18 807.22,172.78 C808.58,171.92 811.11,172.59 813.01,172.99 C816.01,173.63 818.24,173.79 821.45,171.99 C824.14,170.44 829.27,168.68 832.36,170.73 C836.36,173.38 838.6,168.99 841.75,169.87 C843.37,166 847.05,166.95 849.75,167.23 C854.83,167.77 858.75,167.53 860.02,161.51 C860.16,160.87 862.02,160.6 864.11,159.77 L861.01,166.86 L881.01,163.18 C880.86,165.75 880.77,167.39 880.65,169.48 C881.42,168.93 881.93,168.6 882.39,168.22 C886.1,165.12 887.11,165.22 889.6,169.16 L894.73,165.76 C896.28,167.03 893.73,170.19 898.32,169.76 C903.24,169.28 908.43,173.39 913.6,171.44 C917.21,170.07 919.68,170.85 922.77,172.44 C924.88,173.54 927.99,174.28 930.08,173.55 C939.16,170.38 948.37,172.55 957.5,172.2 C957.99,172.2 958.83,172.68 958.94,172.53 C961.94,168.41 964.82,172.72 968.19,172.81 L970.41,166.1 L971.66,166.1 C972.24,167.8 972.81,169.5 973.44,171.34 C983.36,174.64 993.25,171.4 1003.19,169.92 C1004.35,169.75 1005.39,168.8 1006.49,168.22 L1014.4,163.65 C1021.75,163.96 1028.3,159.22 1035.93,160.43 C1037.79,160.73 1040.08,158.34 1041.17,157.74 L1052.39,159.26 C1052.83,160.16 1053.6,161.72 1054.39,163.26 C1062.84,160.26 1063.3,160.04 1067.66,155.33 C1072.98,156.69 1078.46,159.03 1084.03,159.25 C1089.1,159.45 1094.27,157.36 1099.64,156.25 L1099.64,161.86 C1104.54,157.54 1111,164.92 1115.17,158.33 C1117.17,159.79 1118.81,161.61 1120.72,162.03 C1121.8,162.27 1123.38,160.18 1125.11,158.85 C1125.45,160.44 1125.79,162 1126.11,163.53 C1129.71,160.45 1131.31,160.09 1134.93,161.53 C1138.99,163.15 1148.22,164.11 1152.24,162.43 C1154.24,161.6 1154.77,162.81 1156.04,163.13 C1161.44,164.47 1166.91,165.92 1172.42,166.3 C1176.96,166.6 1181.51,165.75 1184.42,160.97 C1185.71,158.87 1190.12,156.06 1190.5,156.41 C1195.57,161.09 1201.27,153.34 1205.89,157.6 C1211.65,152.98 1217.27,148.53 1224.21,146.38 C1230.65,144.38 1236.94,142.98 1243.64,146.68 C1245.8,147.87 1249.7,145.91 1252.89,145.38 L1252.89,151.38 C1253.89,151.5 1254.79,151.91 1255.29,151.62 C1256.49,150.92 1256.56,149.62 1259.05,149.73 C1265.57,149.97 1271.46,155.26 1278.27,152.05 C1280.59,155.77 1284.56,152.98 1287.8,154.39 C1292.61,156.49 1297.48,153.39 1301.68,150.39 C1307.81,145.94 1308.68,146.15 1313.46,152.87 C1316.06,151.23 1318.13,148.41 1322.09,151.05 C1323.09,151.71 1326.78,150.53 1329.38,149.32 C1334.02,147.15 1339.22,145.32 1345,145.73 C1349.58,146.07 1352.68,148.4 1356.56,151.38 L1358.18,142.25 L1362.68,143.8 C1363.68,141.59 1364.68,139.36 1366.06,136.13 C1367.17,138.29 1367.76,139.45 1368.58,141.03 L1371.73,137.03 C1374.36,142.03 1379.43,136.63 1382.31,139.55 C1385.83,143.11 1387.57,140.43 1388.83,138.96 L1426.35,143.65 C1426.76,143.32 1428.29,142.04 1430.35,140.35 L1432.43,144.74 C1434.62,142.49 1437.06,141.74 1439.43,144.46 C1440.23,145.37 1441.33,147.21 1441.76,147.07 C1445.96,145.63 1448.61,150.5 1452.89,149.44 C1455.52,148.79 1458.56,149.82 1462.31,150.18 C1464.49,143.26 1472.95,144.9 1477.86,140.68 C1479.86,141.48 1481.86,143.07 1483.67,142.87 C1486.4083,142.622948 1489.00666,141.548728 1491.12,139.79 C1494.89,136.23 1499.61,135.79 1503.93,133.94 C1510.99,130.94 1518.33,135.56 1524.93,131.52 C1525.55,131.14 1527.54,132.98 1528.93,133.81 C1532.03,135.72 1535.12,137.64 1538.1,139.49 C1545.85,133.97 1553.83,133.71 1562.35,135.17 C1566.13,135.82 1570.2,134.87 1574.75,134.61 C1574.13,137.34 1573.1,141.14 1578.64,142.15 C1579.07,140.67 1579.52,139.15 1579.97,137.6 C1585.63,140.17 1593.12,138.22 1598.11,132.28 C1600.58,129.34 1603.06,127.1 1607.11,127.43 C1607.88,128.81 1608.32,130.58 1609.45,131.36 C1610.58,132.14 1612.35,131.89 1614.05,132.13 C1613.55,133.31 1613.19,134.13 1612.62,135.52 C1615.62,136.96 1618.09,138.76 1622.18,137.14 C1624.97,136.04 1628.75,136.79 1631.92,137.49 C1635.54,138.29 1638.78,139.65 1641.21,135.29 C1641.61,134.57 1643.99,134.42 1645.21,134.79 C1649.95,136.18 1654.6,137.9 1658.8,139.33 C1661.97,135.33 1664.89,131.47 1668.1,127.82 C1670.28,125.34 1672.47,124.07 1675.44,127.66 C1677.03,129.58 1680.33,130.09 1683.71,131.66 L1679.1,140.36 C1683.85,140.62 1685.84,137.13 1687.56,134.07 C1689.15,131.23 1689.76,127.85 1690.85,124.73 C1691.64,122.47 1692.52,120.24 1693.85,116.73 C1695.68,120.6 1696.78,122.93 1697.85,125.25 L1697.71,125 Z M1723.36,138.49 C1723.26,137.7 1723.15,136.9 1723.05,136.1 C1718.66,137.95 1715.32,135.56 1711.4,133.93 C1711.8,136.22 1712.58,139.44 1713.67,139.54 C1716.83,139.81 1720.12,138.88 1723.36,138.44 L1723.36,138.49 Z M1610.28,136.95 L1603.03,139.82 C1606.61,141.75 1609.18,141.16 1610.28,136.9 L1610.28,136.95 Z" id="Shape" fill="#000000"></path>
            <path d="M1697.7,125 C1696.92,120.62 1697.82,117 1702.51,114.84 C1705.25,120.41 1699.43,121.73 1697.71,124.96 L1697.7,125 Z" id="Path" fill="#000000"></path>
            <path d="M908.71,162.59 L899,161 C901.94,158.12 902.05,158.13 908.71,162.59 Z" id="Path" fill="#000000"></path>
            <path d="M1723.36,138.44 C1720.12,138.88 1716.83,139.81 1713.67,139.44 C1712.58,139.34 1711.8,136.12 1711.4,133.83 C1715.32,135.46 1718.66,137.83 1723.05,136 C1723.15,136.85 1723.26,137.65 1723.36,138.44 Z" id="Path" fill="#FFFFFF"></path>
            <path d="M1610.28,136.9 C1609.18,141.16 1606.61,141.75 1603.03,139.77 L1610.28,136.9 Z" id="Path" fill="#FFFFFF"></path>
        </g>
    </g>
</svg>