<svg id="Layer_1" data-name="Layer 1" xmlns="http://www.w3.org/2000/svg" width="2337" height="2179" viewBox="0 0 2337 2179">
  <defs>
    <style>
      .cls-1 {
        fill: #fff;
      }
    </style>
  </defs>
  <g id="rtvUi6">
    <g>
      <path d="M1602.69,699.05l4.74-8.17v12.59l8-.79-5.06-6.41c3.52-6.13,7.8-11.48,10.66-18.52,1-2.39,4.73-2.58,7.22-3.76,3.1-1.46,6.87.72,9.52-4.14.56-1,4.47.15,6.08,1.78,3.14,3.18,6.2,4.57,10,3.09-.28-1.26-.52-2.35-1.1-5l5.76,5.11c6-4.55,10.91-3.47,15.72,3.24,2.71,3.79,2.71,3.79,6.06,4.5-.56,1.87-1.09,3.62-1.82,6,5.32,2.86,9.22,8.16,12.75,14.13.61,1,1.62,2.2,2.49,2.26,12.23.83,23.37,9.43,35.79,9.38,5.29,0,10.21,1.71,13.49,9.68,1.9,4.63,6.58,7.07,10.35,10.84.51-2.32.91-4.12,1.3-5.9.77.2,1.41.1,1.73.5,4.37,5.47,8.31,11.8,13.15,16.26,3.33,3.07,7.84,4.43,11.93,4.93,2.83.35,4.19,2.09,5.45,4.7,2,4.2,4.21,7.61,8.34,7.46,1,0,2.09,1.81,3,3,1.8,2.2,3.24,5.17,6.17,4.37.7-.19,2.07-.05,2.14.32,1.89,9.74,8.2,4,12.18,6.23,3.1,1.75,7.35-.36,10.19,4.3.41.68,1.66,1.34,2,1,4.3-4.19,9.15,2.53,13.46-1.36a1.73,1.73,0,0,1,2.13.41c4.07,7.26,6.82,2.69,9.52-2.07,1.53,2,2.94,5.19,4.44,5.28,2,.11,4.06-2.25,6.08-3.54l6.14,7.54c5,3.92,10.74,6.47,12.87,15.17.42,1.68,11.51,5.5,12.42,4.17,5.83-8.64,11.69-3.13,17.56-.4.21.1.35.5.75,1.09-.35,3.8-.71,7.89-1.15,12.72,2.47-2.67,4.35-5,6.43-6.88,4.25-3.84,4.34-3.72,10.37-1.11a2.57,2.57,0,0,0,2.21-.15c1.13-.67,2.09-1.91,3.23-2.55a39.05,39.05,0,0,1,4.76-1.93c.15,4.14,4.19,6.31,2.32,11.47-.16.47,1.8,3.21,3,3.72,4.14,1.72,8.12,3.09,11.72,7.22,1.65,1.89,5.82.37,8.6-.76,2.35-1,4.34-3.58,6.49-5.46,2.72,5.84,9.69,1,11.56,9l12.79-1.07c.15.8.3,1.59.46,2.39l-6.37,4.36,2.12,5.8,16.06-9.43c1.45,4,4.13,4.9,7.53,2.69l-.24-.31c4.16,1.18,8.34,3.41,12.48,3.27,5.64-.19,10.06,4.88,15,5.55s10.25-3.58,15.6.23c1.36,1,3.46-.16,5.23-.29,2.15-.16,4.38-1.81,6.08,2.09.57,1.33,2.7,1.87,4.13,1.89,7.65.07,9,.61,14.36,6.83,1.18-1,2.51-2,3.76-3.12s2.45-2.51,3.73-3.84c.51,4.52,2,7.38,5.58,5.33,2.35-1.34,4.74.08,7.4-1.65,2.5-1.62,7.23-5,10,1.58,6.62-.28,12.86,7.3,19.74,1.82,2.5-2,5-3.9,7.53-5.83,1.9,2.89-2.66,5.82.77,8.55,2.28,1.81,3.48,2,6,.14,2.1-1.54,6.36-1.05,8.13,1,2.49,3,3.55-4.07,5.87-.21,1.11,1.84,4.34,1.21,6.6,1.71,2.52.55,5,1.54,7.56,1.53a6.85,6.85,0,0,0,5-2.33c2.14-2.54,3.71-4.32,6.75-1.92,1.66,1.31,3.34-.27,4.48-3.71,1.6-4.83,4-4.88,7.83-1.37,3,2.74,5.81,5.8,8.62,8.64l9.42-1.39c-.11,2.09-.21,4.06-.36,7l13.66-4.05c-2.77-3.34-4.28-5.17-5.84-7,2.2-8.56,10.41,4.08,11.31-10.76,3.09,10.89,8.24,11.19,12.28,12.56a29.79,29.79,0,0,1,12,7.37c2.51,2.51,4.67,5.61,8.21,3.67.41-.23,1.25,1.06,1.89,1.65l-2.28,7.81,1.44,1.07,5.09-8.8-3-.31c-.16-2.44-.32-4.88-.62-9.62L2288.4,877c.83-3.06,1.66-6.16,2.7-10l6.8,4.25c-.66-7.56-2.55-14.75,2.78-19.51-.3,5.88-.6,11.58-.88,17.06l7.38,4.22c1.66-2.94,3.61-5.84,6.57-2.29,3.82,1.27,4.29-2.42,4.72-6.17.64-1.85,1.27-3.69,1.91-5.56,3.45,4,6.95,1,10.39.75a46.63,46.63,0,0,1,6.23.39V2173.13H0V561.33c5.33-.91,10.8-1,15.94-2.94,4.89-1.82,8.45,0,10.3,2.62,5.23.38,8.82.47,12.38.94,6.35.84,12.69,1.79,19,2.92,9.87,1.76,19.8-.4,29.69,1,7,1,13.48,2.89,19.79,7.79,4,3.1,9.16,3.62,13.88,4.51,4.16.79,8.44.36,12.65.73,1.16.1,2.9.7,3.31,1.81,2.5,6.89,6.87,6,11.19,5.86,7.64-.33,15.49-1.36,22.55,3.58,6.9,4.81,13.54,8.5,21.66,8.55,7.49,0,15.66,1.94,22.27,6.53,7.15,5,15.28,4.21,22.19,10.56,4.41,4.06,10.82,3.76,16.22,6,3.3,1.35,6.38,3.75,9.56,5.67,4.82,2.93,9.69,5.71,14.46,8.81,8.54,5.55,17,11.39,25.55,16.9,4.68,3,8.8,8,14.4,7.9.69,0,1.83,0,2,.54,4.66,12.33,14.59,8.67,21.59,13.84,1.55,1.14,3.35,1.66,4.84,2.9,6.3,5.23,12.53,10.63,18.79,16a2,2,0,0,0,.68.48c3.35.78,7.66,0,9.81,2.67,2.85,3.49,5.47,5.74,9.13,6.7a10.88,10.88,0,0,1,6,4.14c2.5,3.63,5.23,3.36,8.4,3.51,5.64.26,12-.31,16.64,3.1a70.75,70.75,0,0,0,10.71,6.53,92,92,0,0,0,11.62,4.91c3.85,1.26,8.2.63,10.13,7.21.19.66,1.71.6,2.62.82,6.6,1.66,12.51,6.36,19.13,8.18,3.22.88,3.42,3.59,2.66,11.29,3.42.82,6.84,1.94,10.31,2.41,5.45.74,10.93,1,16.4,1.53-1.53,3.47-.19,7.42,1.51,9.94,1.58,2.33,5,4.8,6.73,3.88,5.38-2.91,10.29-1.35,15.65-.74,3.27.37,7.32-1,11-1.72,7.44-1.45,12.6,4.78,18.21,9,4.5,3.34,10,4.25,13.47,10.83,1,2,4.78,1.71,7.26,1.65,6.75-.16,6.87-.16,7.11,9.13a7.24,7.24,0,0,0,.62,1.95c5.48,4,12,1.25,17.54,5.5,4.74,3.65,10.19,5.7,14.58,10,4.78,4.64,8.69,11,13.06,16.74,4.64-4,8.9-6.07,12.6,1.66.52,1.09,2.89.23,4.3.79a45.23,45.23,0,0,1,5.56,3.2c2.44-.27,5.55-7.65,8.6.53,3.61-1.81,6.75.78,10.1,1.9,7.73,2.59,13.55,9.48,18.17,17.56,2.58,4.52,6.15,2.1,8.54,5.47,2.28,3.22,4.89,5.25,8.82,4.39,3.32-.72,6.94,1.7,10.46,2.15,7.54,1,14.7,3,20.57,10.32,3,3.68,7.11,2.94,10.62,4.71,4.58,2.32,6.27,6.09,7,11.91h13.15c-2.42,6.14-7.5,8.2-7.14,14.91C767,924.1,774.76,927.77,787,927.45l-3.65,8.21c.29.59.58,1.19.88,1.78l10.49-6.55c.54,3,1.08,5.85,1.62,8.83.33.21.83.82,1.13.67,2.43-1.15,4.64-2,7.34-.34,2.28,1.37,5.15.73,7.6,1.72,7.8,3.15,13.49,10.75,19.26,18.17a5.66,5.66,0,0,0,2.89,2c7,1.69,13.73,3.93,20.23,8.37,4.62,3.15,10.28,3.19,15.08,6,7.19,4.16,15.7,2.13,22.12,9.55.54.62,1.46.6,2.2.91,18.27,7.7,37.21,8.7,56,10.24,9.37.77,18.83-.58,28.26-.92,1,0,2.28-.23,3,.49,7.18,7.39,14.65,3.6,22.09,1.41a10.77,10.77,0,0,1,2.24,0c-.57,2.26-1.06,4.23-1.52,6,3.44,2.39,7.19,4.14,10.18,7.28,5.39,5.69,10.75,6.91,16.78,2.57,1.35-1,2.79-1.7,3.47-2.11,3.3,1.66,6.34,4.71,8.91,4.07,2.87-.71,5.32-4.77,8.29-7.69.35.93.93,2.51,1.79,4.85,2.16-2.6,4.14-6.52,7.42-2.92,2.81,3.09,2.83-7.69,6.26-2.68,1.61-2.43,3.23-4.87,5-7.6,3.93,1.62-.91,4.9.37,8.21,5.59-4.3,9.23-14.66,17.14-10.83,3.39-8.44,7.15-15.39,14.26-17,.9-.21,1.41-3.64,2.15-5.71,3.15,2.92,4.45,6.59,2.36,12.54,5-1.26,9.63-2.14,14.14-3.61,4.16-1.35,4.63-1.33,7.59,5,3.12-7.92,8.18-7.9,13.7-7.74,4.92.14,10.5.54,12.74-8.38a4.69,4.69,0,0,1,3.1-2.76c7.33-1.92,14.43-6.12,22.15-4.54,1.65.34,3.38-.14,5.21-.25.67-1.61,1.41-3.36,2.21-5.3,3.7,1.4,7.46,3.7,9.67-2.86,3.2,1,4.73-4.76,8-3.81.78.22,2.53-.84,2.52-1.29,0-5.63,3.68-2.34,5.47-4.79l-3.79-4.34c3.1-4.68,5.7-9,11.06-6.08-1.44,3.42-2.86,6.76-4.41,10.43,4.74,2.6,5.78-4.3,9.43-5.61-4.44-7.37-.21-12.88,2-18l5.83,2.32c.31-2.8.62-5.6,1-9.23,5,7.49,11.41,1.16,16.88,4.12l3-1.78,8.56-4.63,2.86,2.2c.53-2.7,1-5,1.23-6.25,4.41-2.54,8.44-6.8,12.42-6.71,6.53.15,9.23-6,13.38-12.58.13,3.4.19,5.1.27,7.08,5.35-1.81,5.35-1.81,4.44-11,6.78,0,13.46-.09,20.13.14.66,0,1.28,2,1.92,3.07,2.51-3.9,4.86-7.57,7.49-11.67l11-3.62,10.12,3.45c.93-3.87,1.1-7,2.29-8.95,1.3-2.1,2.92-4.79,5.88-2.81,1.1.73,3.48-.79,4.73-2.2,6.53-7.34,6.47-7.44,13.09.19,2-4.36,3.72-9.51,8.44-8.44a2.11,2.11,0,0,0,2.06-1.07c2.51-10.52,10.45-10.31,15.66-15.44.37-.36.95-.31,1.79-.56.45.94,1,2,1.82,3.86,9.43-10.15,21-14.09,32.07-19.38,5.5-2.63,11.37-3.54,16.41-8.54-.41,1.19-.81,2.38-1.49,4.37l4.15-1.5c-.24-4.37-.46-8.13-.73-13,6.25,1,12.12-4.2,18.3,1.8.15-2.86.32-6.12.54-10.21,3.28,1.88,6,1.59,8.64-3,1.65-2.83,5.43-3.25,8.24-4.73-.41,4.13.86,6.59,3.72,7.69,1.2-6.23,1.2-6.23-3.89-7.39l12.76-1.35c.07-.36,0-2.42.66-2.95,3.66-3.11,7.69-5.45,11.16-8.9,1.87-1.86,2.85-4.89,5.38-1.51.36.48,2.58-.44,2.68-1.08.78-5.24,4.27-4,6.43-4.77,2.71-1,5.28-1.14,7.45-4.29,1.06-1.55,3.18-2,4.89-2.36,7.07-1.48,11.1-5.73,14-15.12l4.26,1.1,2.69-12.32c6,4.68,9.2.07,12.71-5.06,3.29-4.83,7.27-8.76,11.3-13.5.85,1.59,1.72,3.23,3.35,6.27.35-7.09,6.8-7.06,5.72-14.33a7,7,0,0,1,2.51-1.4c3.28-1.12,3.44-4.49,3.16-8.22Zm655.39,171.6c-.1.71-.21,1.42-.31,2.12l12.46,7.05c-1.8-6.47-2.25-7.3-7.51-10.06C2261.44,869.09,2259.64,870.3,2258.08,870.65Zm-150.29-1,5.43-9c-.58-.69-1.15-1.39-1.73-2.09C2111.26,863,2105.52,860.81,2107.79,869.65Zm-647.4-53.88c3.35-2.19,6.6-1.78,6.66-8C1463.58,807.81,1461.05,808.36,1460.39,815.77Zm833.4,66.05,4.57-6C2293.3,872.38,2293.3,872.38,2293.79,881.82Zm-95.06-12.37,5.67-6.23C2200.23,860.65,2199.87,864.4,2198.73,869.45ZM636.06,841.16c-.08-.81-.16-1.62-.23-2.43a25.65,25.65,0,0,0-3.41.92,7.9,7.9,0,0,0-.08,2Zm1649,57.4-1.7-.85-2,8.24,1.15.61Z"/>
      <path d="M2318.47,864.49c-.43,3.75-.9,7.44-4.72,6.17.35-3.29.7-6.58,1.2-11.26C2316.41,861.5,2317.44,863,2318.47,864.49Z"/>
      <path d="M1602.85,698.86l-2.91-1.4c.2,1.92.38,3.61.56,5.3-2.52-3.11-1.89-6.19-.46-9.71,2.84.74,3.21,3,2.65,6Z"/>
      <path class="cls-1" d="M2280.16,872.74l3,.31-5.09,8.8-1.44-1.07,2.28-7.81Z"/>
      <path d="M1256.19,918.37l-3,1.78c.6-2.77-2.08-8,3.32-7.66C1256.42,914.57,1256.31,916.47,1256.19,918.37Z"/>
      <path d="M1924.53,806.58l-3.7,1.62-.36-1.45,3.61-2Z"/>
      <path d="M2018.39,838.34c.75-2.28-2-6.83,3.64-6.8-1.61,2.73-2.73,4.63-3.87,6.51Z"/>
      <path class="cls-1" d="M2258.08,870.65c1.56-.35,3.36-1.56,4.64-.89,5.26,2.76,5.71,3.59,7.51,10.06l-12.46-7.05C2257.87,872.07,2258,871.36,2258.08,870.65Z"/>
      <path class="cls-1" d="M2107.79,869.65c-2.27-8.84,3.47-6.64,3.7-11.11.58.7,1.15,1.4,1.73,2.09Z"/>
      <path class="cls-1" d="M1460.39,815.77c.66-7.41,3.19-8,6.66-8C1467,814,1463.74,813.58,1460.39,815.77Z"/>
      <path class="cls-1" d="M2293.79,881.82c-.49-9.44-.49-9.44,4.57-6Z"/>
      <path class="cls-1" d="M1491.74,788.65c5.09,1.16,5.09,1.16,3.89,7.39-2.86-1.1-4.13-3.56-3.72-7.69Z"/>
      <path class="cls-1" d="M2198.73,869.45c1.14-5.05,1.5-8.8,5.67-6.23Z"/>
      <path class="cls-1" d="M636.06,841.16l-3.72.46a7.9,7.9,0,0,1,.08-2,25.65,25.65,0,0,1,3.41-.92C635.9,839.54,636,840.35,636.06,841.16Z"/>
      <path class="cls-1" d="M2285,898.56l-2.58,8-1.15-.61,2-8.24Z"/>
    </g>
  </g>
</svg>
