<svg id="Layer_1" data-name="Layer 1" xmlns="http://www.w3.org/2000/svg" width="2337" height="2179" viewBox="0 0 2337 2179">
  <defs>
    <style>
      .cls-1 {
        fill: #fff;
      }
    </style>
  </defs>
  <g id="bSBJcj">
    <g>
      <path d="M0,814.26c4.06.53,8.12,1.43,12.18,1.43,2.55,0,5.09-1.37,8.54-2.38l5,2.7c3.28-5,8.55-2.61,13.12-3.32,3.41-.53,7.28,1.39,10.23-2,.31-.36,1.78.31,2.71.49,2,.37,4.28,1.56,5.93,1,8.65-3.13,16.78,2.45,25.31,1.22,1.86-.27,4,1.46,6.34,2.39l5.91-6.4c9.37.51,19,1.27,28.57,1.47,4.24.09,8.5-1.33,12.77-1.38,7.82-.08,15.66.28,23.48.62,1.17,0,2.3,1,3.45,1.46.92.4,2,1.3,2.76,1.07,5.47-1.68,10.88-3.58,17.42-5.78,7.43,5.11,13.44-1.52,20.07-5.26,4.95,2.87,9.13,6,15.81,6.26s12.64.31,18.91-1.48c1.57-.45,3.6.16,5.28.7,4.81,1.56,7.89-.43,10-4.32,3.18.52,6.3,1,9.41,1.52.23,0,.57-.28.72-.19,8.7,4.77,17.06-2.36,25.73-.78,1.22.22,2.83-1.67,4.81-2.93.45,1.91.85,3.66,1.25,5.41,4.31,1.37,8.59-.57,12.8-.76,5.81-.25,11.22,1.18,16.82,1.23a46.57,46.57,0,0,0,10.56-.88c2.86-.62,5.4-3,8,.87.32.49,4.26-1.4,7.1-2.38,10.28,4.79,20.26,1.2,29.91-4.54,5.29,6.89,12.26,3.78,18.52,3.54,2.21-.09,4.22-1.36,6.42.31a4,4,0,0,0,2.86.26c13.72-2.73,27.72-1.79,41.51-3.41,6.94-.82,13.51-1.31,19.61,3,.83.59,3-.12,4.24-.82,6-3.46,12.28-2.5,18.41-.92,3.74,1,6.48.32,10.05-1.32,4-1.86,8.42-4.17,14.11-.68,4,2.43,10.47.87,15.84.88q10.74,0,21.48-.32c1.68-.06,3.3-1.12,5-1.31,3-.33,6.21-1,9-.34,4.93,1.26,4.83,1.67,8.26-.28,2.36,1.45,4.46,3.61,6.83,4,2.16.32,4.62-1.28,6.9-2.15.68-.26,1.19-1.3,1.79-1.31,5.31-.08,10.63.08,15.94,0,3.11-.06,6.51.26,9.26-.86,8.13-3.33,16.6-3.38,25.08-3.54,4.53-.09,8.7,1.18,13,3,3.71,1.55,8.14,3.83,12.62,1.62,2.77-1.36,6.37,1.22,8.7-1.92,3.53,2.25,6.87,0,10.29-.41a3.41,3.41,0,0,1,1.4.23c5.5,1.62,6,1.62,9.31,0,1.59.81,3.09,2.2,4.62,2.24,5.47.14,11-.16,16.44-.32,1,0,2.38-.64,2.88-.2,4.9,4.37,8.28.8,11.77-2.1,2.94-2.44,6.25-4.33,9.55-1.4,3.95,3.51,7.35,2.73,10.79-.21,5.17,3.89,9.89,3.73,15,.07,2.07-1.48,5.14-1.91,7.81-2.12a34.58,34.58,0,0,1,9.47.55c2.91.6,5.63,2.11,8.5,3.07,1.61.54,3.8,1.6,4.94,1,5-2.71,10.35-2.56,15.64-3.43a36.48,36.48,0,0,1,10.33.06c4.56.5,9.7-1,14-2.88,5-2.17,9.75-1.91,13,1.7,4.77,5.33,10.89,6.4,17.12,7.46,4,.69,8,3.32,12.41.19,2.14-1.52,4.54-.2,4.84,2.84.35,3.56,2.15,4.09,4.38,1.79,1.87-1.91,3.4-.89,4.7,0,3.22,2.16,5.75.9,8.48-1.84,2.89,2.84,5.18,5.94,8.22,7.84a11.56,11.56,0,0,0,8.12,1.47c3.73-1,6.72-.44,10.42.3,6,1.21,10.1,4.14,14.52,8,2.65,2.31,7.53,2.4,11.48,2.82,6.75.71,6.77.48,7.49,6.76.05.49.18,1,.48,2.49l3.6-8.9c6,.21,10.49-7,17.5-2.64.42-2.8.75-5.05,1.18-7.91,2.91-.14,6-.81,8.93-.32,5.79,1,11.11-.28,16.45-2.14a4.12,4.12,0,0,1,2.72-.29c3.94,1.86,6.74.11,9.53-2.46,1-.88,2.44-1.17,3.65-1.8,2.6-1.35,5.69-2.23,7.64-4.23,3.31-3.37,6.63-4.47,10.55-2.27,7.65-6.68,17.36-9.89,23-18.17,5.92,1.46,11.58,4,17.39.08.74-.49,2.63.76,4.6,1.39,4.57-5.84,12-5.75,18.94-6.67.93-.13,2,1.35,3.08,1.67,3.74,1.07,7.35,3.37,11.51.91,1-.61,2.9-.16,4.27.2,7.46,2,14.74,2.77,22.56,1,4.62-1.07,9.37-.85,12.51-4.86l11.64,4.66c3.24-1.43,5.88-2.37,8.27-3.73,2.94-1.66,4.4,4.53,7.21,1.3,2.61-3,5.56.31,8.35-.92,2-.87,4.52-.35,6.7-.91,4.34-1.11,8.08-2,13.09-.72,6.9,1.69,14.62.14,22-.16,3.52-.15,7.09-1.48,10.39.95.59.43,1.71,1,2.1.74,7.27-4.73,15.47.89,22.89-2.12,1.1-.44,2.87-.62,3.72,0,4.52,3.1,10-2.66,14.42,1.75.28.28,2.66-.72,3.19-1.63,3.15-5.36,7.92-3.58,12.37-3,6.94.84,13.86,1.79,20.78,2.76,3.75.52,7.47,1.15,11.2,1.75.25,0,.57.37.69.3,6.14-3.77,10.95,1.21,16.28,2.52,6.6,1.63,6.57,1.76,10.42-3.93.43-.63.85-1.27,1.28-1.92,6.66,6.8,6.66,6.8,13.66,3,2.29,1,4.82,3.17,6.57,2.65,7.79-2.27,15.21,1.31,22.81.72,1.64-.12,3.56.1,4.86-.68,5.72-3.41,11.71-3.31,18.09-2.76,6.56.57,13,1,18.6,4.85a13.5,13.5,0,0,1,2,2c2.24-.48,4.84-1.94,6.52-1.23,5.88,2.48,12.14,1.43,18.1,2.69.75.16,1.73.7,2.22.41,5.84-3.45,13,0,18.84-3.72,2.92-1.86,5.31-.06,6.37,4.14,3.83-4.89,10.88-3.32,11.91-10,4.5.33,8.69.7,12.88.93s7-2.91,8.27-5.68c1.59-3.63,3.91-3.77,6.43-3.13,3.52.91,6.71,3.28,10.52.61.37-.26,2.23,1.61,3.81,2.8l1.88-3.67a7.69,7.69,0,0,1,2.09.5c4.1,2.3,8,2.74,12.27,0a8.9,8.9,0,0,1,9.27-.62,21.68,21.68,0,0,0,20.49-1c2.53-1.42,6.29-2.61,8.77-1.77,6.85,2.33,13.6.56,20.31.49,9.58-.09,19.13-1.7,28.72-2.08a25.79,25.79,0,0,1,10.77,2.21c2.75,1.18,5.1,2,8,1a14,14,0,0,1,4.56-.6,67.88,67.88,0,0,0,32.4-7.2c.84-.42,2.34-.69,2.93-.24,6,4.59,13.42,1.28,19.91,3.55,4.21,1.48,8.89,1.62,14.07,2.47,3.41-2.56,7.55-3.75,13.17-2.67,6.52,1.24,13.59,2.19,20.16-1.42,1.17-.64,3.28.33,4.94.66,8.29,1.66,16.32,2.94,24.76-.61,3.79-1.59,9.29-1.35,13.22.15,7.14,2.72,14,2.3,20.94,1l6,5.46,2.07-5c3.49,3.29,7.11,5.28,11.8,4.58,5.41-.81,11.2-.14,15.67-4.45.88-.86,11.86,1.11,13.3,1.85,2.2,1.13,4.48,2.78,6.78,2.87,7.57.28,14.19,3.47,21,6,3.81,1.42,7.6,2.73,11.69,1a3,3,0,0,1,2.11-.28c6.39,3.73,13.62-.13,19.7,1.82,5.43,1.73,11.4.79,16.09,4.12,1-.37,2-.41,2.4-.92,5-6.87,12.36-4.54,18.23-3.27,8.51,1.84,16.55,5.9,24.78,9.05,4.91,1.88,10.12,2.24,15.17,3.29,6.83,1.42,13.51,2.68,20.47,2.2.44,0,1.25.3,1.31.59.89,4,4.57,5,7.36,4.86,3-.11,5.92-2.33,9.74-4,1,.2,3.54,1.62,5.08.89,4.64-2.2,9-1,13.49-.23,2.44.42,5,.08,7.48.32,1.47.13,3.45.25,4.23,1.18,3,3.59,7.58,2.66,11.17,4.4a1.15,1.15,0,0,0,.75.14c2.72-.91,5.57-2.89,8.1-2.54,3,.42,5.85,1.73,8.76-.18,3.11-2,5.87-2.84,8.69.77.89,1.14,3.18,1.31,4.88,1.67,2.13.46,4.32.64,6.48,1,1.86.27,3.71.61,5.58.82,1.26.14,3-.42,3.74.21,4.68,3.76,9,1.35,13.66,0,5-1.49,10.07-1.44,13.84,3.31a27.58,27.58,0,0,0,3.45,3c4.82-2.25,9.67-5.13,14.9-6.78,4-1.26,8.25-2.9,12.83-1.12a10.27,10.27,0,0,0,6.53.08c5-1.69,9.73-4.2,14.72-5.93,6-2.09,11.68-1.95,16.86,2.92,1.79,1.68,5.52,2.9,7.73,2.24,5.22-1.57,9.36.83,13.87,2.11,1.94.55,3.94,1.68,5.82,1.51,6.72-.63,13.37.51,20.06.31,7-.21,14-.2,21.08-.29V2179H0ZM55.37,828.9c-.21-1.95-.36-3.35-.57-5.34C51.45,826.08,53.57,827.18,55.37,828.9Z"/>
      <path class="cls-1" d="M55.37,828.9c-1.8-1.72-3.92-2.82-.57-5.34C55,825.55,55.16,827,55.37,828.9Z"/>
    </g>
  </g>
</svg>
