<?xml version="1.0" encoding="UTF-8"?>
<svg width="305px" height="168px" viewBox="0 0 305 168" version="1.1" xmlns="http://www.w3.org/2000/svg" xmlns:xlink="http://www.w3.org/1999/xlink">
    <!-- Generator: Sketch 61.2 (89653) - https://sketch.com -->
    <title>tear-h</title>
    <desc>Created with Sketch.</desc>
    <g id="Page-1" stroke="none" stroke-width="1" fill="none" fill-rule="evenodd">
        <g id="tear-h" transform="translate(152.500000, 84.000000) rotate(-180.000000) translate(-152.500000, -84.000000) translate(0.000000, 0.000000)" fill="#231F20" fill-rule="nonzero">
            <path d="M1.35,160.82 C3.58,158.62 5.52,155.98 8.09,154.32 C10.66,152.66 13.76,151.82 16.72,150.94 C19.28,150.18 22.04,150.37 24.35,148.43 C25.7975121,147.120069 27.9350802,146.920563 29.6,147.94 C30.85,148.71 31.8,148.32 32.79,147.23 C35.05,144.75 37.79,142.92 41.24,142.78 C43.74,142.68 46.24,143.07 48.57,141.5 C49.01,141.2 49.96,141.5 50.64,141.68 C52.73,142.2 54.45,142.02 55.64,139.84 C56.4603925,138.437431 57.945791,137.556775 59.57,137.51 C62.5502433,137.279482 65.5028016,136.773999 68.39,136 C70.83,135.21 73.61,134 74.13,131 C74.86,126.88 75.99,126.48 79.92,128.18 C82.21,129.18 85.1,128.78 87.71,129.02 C89.25,126.28 92.3,127.17 94.58,126.19 C95.5863395,125.628895 96.7289401,125.358826 97.88,125.41 C100.88,126 104.18,124.41 106.79,126.97 C106.91,127.09 107.21,127.06 107.43,127.04 C111.07,126.74 113.9,128.33 116.43,130.74 C117.018898,131.254797 117.810833,131.472118 118.58,131.33 C121.01,130.28 123.16,130.83 125.37,131.92 C126.098958,132.226281 126.894441,132.339921 127.68,132.25 C132.13,131.93 135.68,133.77 138.61,136.88 C141.26,139.66 144.82,140.17 148.28,140.98 C151.74,141.79 155.07,142.53 158.45,143.38 C160.37,143.87 162.5,144.13 164.11,145.16 C165.978503,146.263021 168.152049,146.736293 170.31,146.51 C173.42,146.41 176.54,146.11 179.63,146.29 C181.263091,146.374138 182.82772,146.972688 184.1,148 C186.343641,149.977812 189.168366,151.174372 192.15,151.41 C194.46,151.63 196.72,151.41 198.76,152.97 C199.660039,153.418246 200.671961,153.592115 201.67,153.47 C206.96,153.42 212.24,153.34 217.52,153.17 C218.512585,153.126262 219.481415,152.852388 220.35,152.37 C223.05,150.86 225.41,151.26 227.73,153.27 C228.941833,154.245963 230.37895,154.902636 231.91,155.18 C235.79,155.95 239.73,156.44 243.64,157.07 C243.97,157.12 244.26,157.43 244.64,157.53 C245.676292,157.961417 246.766169,158.250705 247.88,158.39 C256.37,158.46 264.88,158.32 273.34,158.48 C277.45,158.56 281.28,160.76 285.49,160.55 C285.704771,160.580495 285.909877,160.659119 286.09,160.78 C288.73,161.97 291.36,163.19 294.02,164.33 C294.573006,164.517837 295.163896,164.565932 295.74,164.47 C298.12,164.25 299.8,165.64 301.6,166.85 C302.485977,167.304517 303.417918,167.663213 304.38,167.92 L304.38,0 L0,0 L0,162 C0.481360575,161.644058 0.932860089,161.249414 1.35,160.82 Z" id="Path"></path>
        </g>
    </g>
</svg>